<svg version="1.1" xmlns="http://www.w3.org/2000/svg" xmlns:xlink="http://www.w3.org/1999/xlink" width="965.46547" height="753.43361" viewBox="0,0,965.46547,753.43361"><g transform="translate(122.11562,146.76544)"><g data-paper-data="{&quot;isPaintingLayer&quot;:true}" fill="#000000" fill-rule="nonzero" stroke="none" stroke-width="0" stroke-linecap="butt" stroke-linejoin="miter" stroke-miterlimit="10" stroke-dasharray="" stroke-dashoffset="0" style="mix-blend-mode: normal"><path d="M69.9729,67.83963v-56.21108h87.74414v56.21109z"/><path d="M215.29913,155.58377v-94.59915h135.72921v94.59915z"/><path d="M138.52301,306.394v-74.03412h127.5032v74.03412z"/><path d="M536.11362,353.00807v-64.4371h9.59702v64.4371z"/><path d="M488.12855,162.43878v-67.1791h132.98721v67.1791z"/><path d="M534.74262,58.24262v-75.40512h72.66312v75.40512z"/><path d="M412.72343,41.79059v-5.48401h28.79104v5.48401z"/><path d="M409.98143,174.7778v-49.35608h1.371v49.35608z"/><path d="M434.65947,280.34496v-34.27506h45.24307v34.27506z"/><path d="M415.46544,379.05711v-13.71002h31.53305v13.71002z"/><path d="M263.2842,438.01021v-27.42004h67.1791v27.42004z"/><path d="M315.38228,363.97609v-4.11301h41.13007v4.11301z"/><path d="M314.01128,274.86095v-28.79104h49.35607v28.79104z"/><path d="M360.62535,326.95903v-10.96801h42.50106v10.96801z"/><path d="M552.56565,244.69891v-24.67804h37.01706v24.67804z"/><path d="M625.22876,405.10615v-54.84008h8.22601v54.84008z"/><path d="M617.00275,277.60296v-16.45202h41.13007v16.45202z"/><path d="M638.93879,206.31085v-37.01706h17.82302v37.01706z"/><path d="M573.13068,178.8908v-2.74201h17.82303v2.74201z"/><path d="M663.61682,82.92065v-58.95309h23.30704v58.95309z"/><path d="M390.7874,-4.82348v-13.71002h47.98507v13.71002z"/><path d="M453.8535,420.18718v-17.82303h71.29211v17.82303z"/><path d="M529.25862,481.88227v-9.59701h45.24307v9.59701z"/><path d="M541.59764,450.34922v-39.75906h78.14712v39.75906z"/><path d="M122.07098,409.21916v-13.71002h52.09808v13.71002z"/><path d="M43.92386,496.9633v-41.13006h106.93817v41.13007z"/><path d="M75.45691,357.12108v-28.79104h9.59702v28.79104z"/><path d="M176.91107,358.49208v-5.48401h39.75906v5.48401z"/><path d="M226.17718,414.71966l-13.08027,-9.97877l9.1472,-11.99024l13.08027,9.97876z"/><path d="M248.20318,328.33004v-21.93604h28.79104v21.93604z"/><path d="M45.29486,258.40893v-26.04904h38.38806v26.04904z"/><path d="M83.68292,167.92279v-6.85502h13.71002v6.85502z"/><path d="M137.15201,176.1488v-6.85501h28.79104v6.85501z"/><path d="M34.32685,111.7117v-26.04904h95.97015v26.04904z"/><path d="M165.94305,174.7778v-65.8081h49.35608v65.80811z"/><path d="M266.02621,204.93984v-23.30704h20.56503v23.30704z"/><path d="M250.94518,8.88654v-1.371h69.92111v1.371z"/><path d="M183.76608,45.9036v-54.84008h21.93604v54.84009z"/><path d="M34.32685,421.55818v-28.79104h38.38806v28.79104z"/><path d="M272.88122,473.65626v-16.45202h63.0661v16.45202z"/><path d="M636.19678,455.83323v-34.27505h67.17911v34.27505z"/><path d="M662.24582,354.37908v-39.75907h13.71002v39.75907z"/><path d="M570.38868,348.89507v-38.38806h26.04904v38.38806z"/><path d="M445.62749,195.34283v-53.46908h2.74201v53.46908z"/><path d="M401.75542,87.03366v-28.79104h60.3241v28.79104z"/><path d="M346.91533,226.87588v-35.64606h82.26013v35.64606z"/><path d="M-103.58856,-78.8329v-30.87843h76.16679v30.87843z"/><path d="M-93.29575,96.14485v-80.2839h63.81542v80.28391z"/><path d="M-115.93993,262.88836v-51.46404h72.04966v51.46405z"/><path d="M-68.59301,468.74453v-51.46404h6.17569v51.46405z"/><path d="M65.21351,536.67707v-18.52706h51.46405v18.52706z"/><path d="M221.6642,553.14556v-24.70274h76.16679v24.70274z"/><path d="M386.34914,606.66817v-92.63528h53.52261v92.63528z"/><path d="M544.8584,573.73118v-24.70274h100.86953v24.70274z"/><path d="M633.37655,549.02844v-82.34247h28.81987v82.34247z"/><path d="M763.06594,526.38426v-2.05856h22.64418v2.05856z"/><path d="M746.59745,516.09145v-67.93254h28.81987v67.93254z"/><path d="M783.65156,308.17672v-74.10822h2.05856v74.10823z"/><path d="M800.12006,248.47842v-2.05856h41.17124v2.05856z"/><path d="M715.71902,252.59555v-111.16233h47.34692v111.16233z"/><path d="M740.42176,374.05069v-22.64418h51.46405v22.64418z"/><path d="M820.70567,485.21303v-72.04966h4.11712v72.04966z"/><path d="M740.42176,602.55105v-61.75686h61.75686v61.75686z"/><path d="M664.25497,594.3168v-32.93699h59.6983v32.93699z"/><path d="M783.65156,104.3791v-74.10822h59.69829v74.10822z"/><path d="M715.71902,-10.90036v-45.28836h37.05411v45.28836z"/><path d="M783.65156,-25.31029v-45.28836h26.7613v45.28836z"/><path d="M680.72347,-87.06714v-43.2298h63.81542v43.2298z"/><path d="M546.91696,-89.1257v-37.05412h61.75685v37.05412z"/><path d="M590.14676,-29.42741v-45.28836h47.34692v45.28836z"/><path d="M392.52483,-25.31029v-49.40548h63.81541v49.40549z"/><path d="M417.22757,-124.12125v-10.29281h84.40103v10.29281z"/><path d="M231.95701,-56.18872v-45.28835h55.58117v45.28836z"/><path d="M285.47962,-19.1346v-26.7613h57.63973v26.76131z"/><path d="M227.83989,-113.82845v-28.81986h162.62638v28.81986z"/><path d="M56.97926,-85.00858v-12.35137h69.9911v12.35137z"/><path d="M73.44775,-35.6031v-12.35137h74.10822v12.35137z"/><path d="M100.20906,-140.58975v-6.17568h57.63973v6.17568z"/><path d="M147.55597,-78.8329v-18.52706h28.81987v18.52706z"/><path d="M-68.59301,351.40651v-2.05856h53.52261v2.05856z"/><path d="M-93.29575,584.02399v-30.87843h55.58117v30.87843z"/><path d="M-52.12451,520.20858v-6.17569h43.2298v6.17569z"/><path d="M13.74946,586.08255v-37.05411h45.28836v37.05411z"/><path d="M-64.47589,439.92467v-24.70274h78.22535v24.70274z"/><path d="M-122.11561,316.41096v-69.9911h100.86953v69.9911z"/><path d="M-19.18753,234.06849v-63.81541h34.99555v63.81542z"/><path d="M-39.77314,100.26198v-4.11713h45.28836v4.11713z"/><path d="M-4.77759,-8.8418v-49.40548h6.17569v49.40548z"/></g></g></svg>