<svg version="1.1" xmlns="http://www.w3.org/2000/svg" xmlns:xlink="http://www.w3.org/1999/xlink" width="701.2012" height="645.64566" viewBox="0,0,701.2012,645.64566"><defs><radialGradient cx="240" cy="180" r="350.6006" gradientUnits="userSpaceOnUse" id="color-1"><stop offset="0" stop-color="#000000" stop-opacity="0"/><stop offset="1" stop-color="#000000"/></radialGradient><radialGradient cx="240" cy="180" r="350.6006" gradientUnits="userSpaceOnUse" id="color-2"><stop offset="0" stop-color="#000000" stop-opacity="0"/><stop offset="1" stop-color="#000000"/></radialGradient><radialGradient cx="240" cy="180" r="350.6006" gradientUnits="userSpaceOnUse" id="color-3"><stop offset="0" stop-color="#000000" stop-opacity="0"/><stop offset="1" stop-color="#000000"/></radialGradient><radialGradient cx="240" cy="180" r="350.6006" gradientUnits="userSpaceOnUse" id="color-4"><stop offset="0" stop-color="#000000" stop-opacity="0"/><stop offset="1" stop-color="#000000"/></radialGradient><radialGradient cx="240" cy="180" r="350.6006" gradientUnits="userSpaceOnUse" id="color-5"><stop offset="0" stop-color="#000000" stop-opacity="0"/><stop offset="1" stop-color="#000000"/></radialGradient><radialGradient cx="240" cy="180" r="350.6006" gradientUnits="userSpaceOnUse" id="color-6"><stop offset="0" stop-color="#000000" stop-opacity="0"/><stop offset="1" stop-color="#000000"/></radialGradient><radialGradient cx="240" cy="180" r="350.6006" gradientUnits="userSpaceOnUse" id="color-7"><stop offset="0" stop-color="#000000" stop-opacity="0"/><stop offset="1" stop-color="#000000"/></radialGradient><radialGradient cx="240" cy="180" r="350.6006" gradientUnits="userSpaceOnUse" id="color-8"><stop offset="0" stop-color="#000000" stop-opacity="0"/><stop offset="1" stop-color="#000000"/></radialGradient><radialGradient cx="240" cy="180" r="350.6006" gradientUnits="userSpaceOnUse" id="color-9"><stop offset="0" stop-color="#000000" stop-opacity="0"/><stop offset="1" stop-color="#000000"/></radialGradient><radialGradient cx="240" cy="179.99999" r="350.6006" gradientUnits="userSpaceOnUse" id="color-10"><stop offset="0" stop-color="#000000" stop-opacity="0"/><stop offset="1" stop-color="#000000"/></radialGradient><radialGradient cx="240" cy="179.99999" r="350.6006" gradientUnits="userSpaceOnUse" id="color-11"><stop offset="0" stop-color="#000000" stop-opacity="0"/><stop offset="1" stop-color="#000000"/></radialGradient><radialGradient cx="240" cy="180" r="350.6006" gradientUnits="userSpaceOnUse" id="color-12"><stop offset="0" stop-color="#000000" stop-opacity="0"/><stop offset="1" stop-color="#000000"/></radialGradient><radialGradient cx="240" cy="180" r="350.6006" gradientUnits="userSpaceOnUse" id="color-13"><stop offset="0" stop-color="#000000" stop-opacity="0"/><stop offset="1" stop-color="#000000"/></radialGradient><radialGradient cx="240" cy="180" r="350.6006" gradientUnits="userSpaceOnUse" id="color-14"><stop offset="0" stop-color="#000000" stop-opacity="0"/><stop offset="1" stop-color="#000000"/></radialGradient><radialGradient cx="240" cy="180" r="350.6006" gradientUnits="userSpaceOnUse" id="color-15"><stop offset="0" stop-color="#000000" stop-opacity="0"/><stop offset="1" stop-color="#000000"/></radialGradient><radialGradient cx="240" cy="180" r="350.6006" gradientUnits="userSpaceOnUse" id="color-16"><stop offset="0" stop-color="#000000" stop-opacity="0"/><stop offset="1" stop-color="#000000"/></radialGradient><radialGradient cx="240" cy="179.99999" r="350.6006" gradientUnits="userSpaceOnUse" id="color-17"><stop offset="0" stop-color="#000000" stop-opacity="0"/><stop offset="1" stop-color="#000000"/></radialGradient><radialGradient cx="240" cy="179.99999" r="350.6006" gradientUnits="userSpaceOnUse" id="color-18"><stop offset="0" stop-color="#000000" stop-opacity="0"/><stop offset="1" stop-color="#000000"/></radialGradient><radialGradient cx="240" cy="179.99999" r="350.6006" gradientUnits="userSpaceOnUse" id="color-19"><stop offset="0" stop-color="#000000" stop-opacity="0"/><stop offset="1" stop-color="#000000"/></radialGradient></defs><g transform="translate(110.6006,142.82283)"><g data-paper-data="{&quot;isPaintingLayer&quot;:true}" fill-rule="nonzero" stroke="none" stroke-width="0" stroke-linecap="butt" stroke-linejoin="miter" stroke-miterlimit="10" stroke-dasharray="" stroke-dashoffset="0" style="mix-blend-mode: normal"><path d="M590.6006,180c0,178.29012 -156.96924,322.82282 -350.6006,322.82282c-193.63136,0 -350.6006,-144.5327 -350.6006,-322.82282c0,-178.29012 156.96924,-322.82282 350.6006,-322.82282c193.63136,0 350.6006,144.5327 350.6006,322.82282z" fill="url(#color-1)"/><path d="M590.6006,180c0,178.29012 -156.96924,322.82282 -350.6006,322.82282c-193.63136,0 -350.6006,-144.53271 -350.6006,-322.82282c0,-178.29012 156.96924,-322.82282 350.6006,-322.82282c193.63136,0 350.6006,144.53271 350.6006,322.82282z" fill="url(#color-2)"/><path d="M590.6006,180c0,178.29012 -156.96923,322.82283 -350.6006,322.82283c-193.63136,0 -350.6006,-144.5327 -350.6006,-322.82283c0,-178.29012 156.96924,-322.82282 350.6006,-322.82282c193.63136,0 350.6006,144.53271 350.6006,322.82282z" fill="url(#color-3)"/><path d="M590.6006,180c0,178.29012 -156.96923,322.82283 -350.6006,322.82283c-193.63136,0 -350.6006,-144.5327 -350.6006,-322.82283c0,-178.29012 156.96924,-322.82282 350.6006,-322.82282c193.63137,0 350.6006,144.53271 350.6006,322.82282z" fill="url(#color-4)"/><path d="M590.6006,180c0,178.29012 -156.96924,322.82282 -350.6006,322.82282c-193.63136,0 -350.6006,-144.5327 -350.6006,-322.82282c0,-178.29012 156.96924,-322.82282 350.6006,-322.82282c193.63136,0 350.6006,144.53271 350.6006,322.82282z" fill="url(#color-5)"/><path d="M590.6006,180c0,178.29012 -156.96924,322.82283 -350.6006,322.82283c-193.63136,0 -350.6006,-144.5327 -350.6006,-322.82283c0,-178.29012 156.96924,-322.82282 350.6006,-322.82282c193.63136,0 350.6006,144.53271 350.6006,322.82282z" fill="url(#color-6)"/><path d="M590.6006,180c0,178.29012 -156.96924,322.82283 -350.6006,322.82283c-193.63136,0 -350.6006,-144.5327 -350.6006,-322.82283c0,-178.29012 156.96924,-322.82282 350.6006,-322.82282c193.63136,0 350.6006,144.53271 350.6006,322.82282z" fill="url(#color-7)"/><path d="M590.6006,180c0,178.29012 -156.96924,322.82283 -350.6006,322.82283c-193.63136,0 -350.6006,-144.5327 -350.6006,-322.82283c0,-178.29012 156.96924,-322.82282 350.6006,-322.82282c193.63136,0 350.6006,144.53271 350.6006,322.82282z" fill="url(#color-8)"/><path d="M590.6006,180c0,178.29012 -156.96924,322.82283 -350.6006,322.82283c-193.63136,0 -350.6006,-144.5327 -350.6006,-322.82283c0,-178.29012 156.96924,-322.82282 350.6006,-322.82282c193.63136,0 350.6006,144.53271 350.6006,322.82282z" fill="url(#color-9)"/><path d="M590.6006,179.99999c0,178.29012 -156.96924,322.82283 -350.6006,322.82283c-193.63136,0 -350.6006,-144.5327 -350.6006,-322.82283c0,-178.29012 156.96924,-322.82282 350.6006,-322.82282c193.63136,0 350.6006,144.53271 350.6006,322.82282z" fill="url(#color-10)"/><path d="M590.6006,179.99999c0,178.29012 -156.96924,322.82283 -350.6006,322.82283c-193.63136,0 -350.6006,-144.5327 -350.6006,-322.82283c0,-178.29012 156.96924,-322.82282 350.6006,-322.82282c193.63136,0 350.6006,144.53271 350.6006,322.82282z" fill="url(#color-11)"/><path d="M590.6006,180c0,178.29012 -156.96924,322.82283 -350.6006,322.82283c-193.63136,0 -350.6006,-144.5327 -350.6006,-322.82283c0,-178.29012 156.96924,-322.82282 350.6006,-322.82282c193.63136,0 350.6006,144.53271 350.6006,322.82282z" fill="url(#color-12)"/><path d="M590.6006,180c0,178.29012 -156.96924,322.82283 -350.6006,322.82283c-193.63136,0 -350.6006,-144.5327 -350.6006,-322.82283c0,-178.29012 156.96924,-322.82282 350.6006,-322.82282c193.63136,0 350.6006,144.53271 350.6006,322.82282z" fill="url(#color-13)"/><path d="M590.6006,180c0,178.29012 -156.96924,322.82283 -350.6006,322.82283c-193.63136,0 -350.6006,-144.5327 -350.6006,-322.82283c0,-178.29012 156.96924,-322.82282 350.6006,-322.82282c193.63136,0 350.6006,144.53271 350.6006,322.82282z" fill="url(#color-14)"/><path d="M590.6006,180c0,178.29012 -156.96924,322.82283 -350.6006,322.82283c-193.63136,0 -350.6006,-144.5327 -350.6006,-322.82283c0,-178.29012 156.96924,-322.82282 350.6006,-322.82282c193.63136,0 350.6006,144.53271 350.6006,322.82282z" fill="url(#color-15)"/><path d="M590.6006,180c0,178.29012 -156.96924,322.82283 -350.6006,322.82283c-193.63136,0 -350.6006,-144.5327 -350.6006,-322.82283c0,-178.29012 156.96924,-322.82282 350.6006,-322.82282c193.63136,0 350.6006,144.53271 350.6006,322.82282z" fill="url(#color-16)"/><path d="M590.6006,179.99999c0,178.29012 -156.96924,322.82283 -350.6006,322.82283c-193.63136,0 -350.6006,-144.5327 -350.6006,-322.82283c0,-178.29012 156.96924,-322.82282 350.6006,-322.82282c193.63136,0 350.6006,144.53271 350.6006,322.82282z" fill="url(#color-17)"/><path d="M590.6006,179.99999c0,178.29012 -156.96924,322.82283 -350.6006,322.82283c-193.63136,0 -350.6006,-144.5327 -350.6006,-322.82283c0,-178.29012 156.96924,-322.82282 350.6006,-322.82282c193.63136,0 350.6006,144.53271 350.6006,322.82282z" fill="url(#color-18)"/><path d="M590.6006,179.99999c0,178.29012 -156.96924,322.82283 -350.6006,322.82283c-193.63136,0 -350.6006,-144.5327 -350.6006,-322.82283c0,-178.29012 156.96924,-322.82282 350.6006,-322.82282c193.63136,0 350.6006,144.53271 350.6006,322.82282z" fill="url(#color-19)"/></g></g></svg>